<svg xmlns="http://www.w3.org/2000/svg" width="420" height="280" viewBox="0 0 420 280" role="img" aria-label="Copper crop hairstyle">
  <rect width="420" height="280" fill="#fff1ed"/>
  <circle cx="210" cy="130" r="58" fill="#cb8d63"/>
  <path d="M140 113c17-58 58-85 121-79 38 4 60 24 66 61-76-10-138-4-187 18z" fill="#c44e35"/>
  <path d="M146 88c26-35 68-51 124-46-21 31-62 48-124 46z" fill="#e56f42"/>
  <path d="M148 137c25 28 75 33 150 16-11 49-43 78-86 78-50 0-79-33-64-94z" fill="#5b2b1c" opacity=".18"/>
  <path d="M120 165c57 31 121 34 190 9" fill="none" stroke="#c44e35" stroke-width="10" stroke-linecap="round"/>
</svg>
