<svg xmlns="http://www.w3.org/2000/svg" width="420" height="280" viewBox="0 0 420 280" role="img" aria-label="Member style post">
  <rect width="420" height="280" fill="#eef3f1"/>
  <rect x="52" y="48" width="316" height="184" rx="10" fill="#fff"/>
  <path d="M92 196c44-52 84-74 120-66 20 4 38 21 54 49 16-31 37-44 62-39 13 3 27 12 42 28v64H92z" fill="#158f7a" opacity=".2"/>
  <circle cx="156" cy="112" r="34" fill="#d58a22" opacity=".75"/>
  <path d="M192 92h84v18h-84zM192 124h112v18H192zM192 156h72v18h-72z" fill="#dbe3df"/>
  <path d="M118 58l-16 30M102 58l16 30" stroke="#18211f" stroke-width="5" stroke-linecap="round"/>
</svg>
